<svg width="54" height="102" viewBox="0 0 54 102" fill="none" xmlns="http://www.w3.org/2000/svg">
<path d="M36.8194 15.6084L33.1733 14.0579C31.5261 13.3594 30.6554 11.7121 31.0847 10.1215L32.1915 6.03892C32.581 4.60175 32.2294 3.06777 31.257 1.94457C30.1338 0.646664 28.5669 0 26.9999 0C25.4328 0 23.866 0.646664 22.7426 1.94457C22.03 2.76575 21.6499 3.80886 21.6499 4.8709C21.6499 5.26037 21.7019 5.65203 21.8057 6.03912L22.9125 10.1217C23.3444 11.7123 22.4712 13.3594 20.8263 14.0581L17.1802 15.6086C15.9672 16.123 15.245 17.2699 15.3749 18.4712L16.8097 31.7622L19.4055 32.1894L18.7281 42.698C18.5534 45.4095 19.2238 48.1115 20.6586 50.4998L21.5293 51.9441L20.491 56.7536C20.0874 58.6251 20.1394 60.5507 20.6444 62.4009L22.7045 69.9549C23.0089 71.0687 22.7824 72.2439 22.0792 73.2021L19.8774 76.1992H26.9999H34.1198L31.918 73.2021C31.2171 72.2441 30.9906 71.0687 31.2927 69.9549L33.3552 62.4009C33.8602 60.5507 33.9122 58.6251 33.5086 56.7536L32.4678 51.9441L33.3386 50.4998C34.7758 48.1115 35.4436 45.4095 35.2691 42.698L34.5917 32.1894L37.1875 31.7622L38.6247 18.4712C38.7546 17.2699 38.0324 16.123 36.8194 15.6084Z" fill="#F7B239"/>
<path d="M26.9999 0C26.3532 0 25.7066 0.646664 25.2442 1.94457C24.9491 2.76575 24.7933 3.80886 24.7933 4.8709C24.7933 5.26037 24.8147 5.65203 24.8571 6.03912L25.3125 10.1217C25.4918 11.7123 25.1308 13.3594 24.4535 14.0581L22.9478 15.6086C22.4475 16.123 22.1501 17.2699 22.2045 18.4712L22.7968 27.6701H24.4228L23.5875 42.698C23.5144 45.4095 23.7929 48.1115 24.3828 50.4998L24.7437 51.9441L24.3142 56.7536C24.1491 58.6251 24.1702 60.5507 24.378 62.4009L25.2274 69.9549C25.3526 71.0687 25.2605 72.2439 24.9703 73.2021L24.0616 76.1992H19.8774L22.0792 73.2021C22.7824 72.2441 23.0089 71.0687 22.7045 69.9549L20.6444 62.4009C20.1394 60.5507 20.0874 58.6251 20.491 56.7536L21.5293 51.9441L20.6586 50.4998C19.2238 48.1115 18.5536 45.4095 18.7281 42.698L19.4055 32.1894L16.8097 31.7622L15.3749 18.4712C15.245 17.2699 15.9672 16.123 17.1802 15.6086L20.8263 14.0581C22.4713 13.3596 23.3442 11.7123 22.9125 10.1217L21.8057 6.03912C21.7019 5.65203 21.6499 5.26037 21.6499 4.8709C21.6499 3.80886 22.0298 2.76595 22.7426 1.94457C23.866 0.646664 25.4328 0 26.9999 0Z" fill="#E09B2D"/>
<path d="M38.5375 75.9631V83.0689H15.4624V75.9631H19.8777H27H34.1198H38.5375Z" fill="#808080"/>
<path d="M41.6456 82.8328V102H12.3545V82.8328H15.4625H38.5376H41.6456Z" fill="#B3B3B3"/>
</svg>
