<svg width="150" height="150" viewBox="0 0 150 150" fill="none" xmlns="http://www.w3.org/2000/svg">
<rect width="150" height="150" fill="#18181B"/>
<path d="M81.0709 38.0579L84.7058 39.6084C85.9151 40.123 86.635 41.2699 86.5055 42.4712L85.2011 54.572C85.1253 55.2754 84.5897 55.842 83.8917 55.9572C83.0932 56.089 82.5245 56.8045 82.5764 57.6121L83.1602 66.698C83.3342 69.4095 82.6685 72.1115 81.2358 74.4998L81.1831 74.5874C80.6593 75.459 80.487 76.4974 80.7015 77.4914L81.4052 80.7536C81.8076 82.6251 81.7557 84.5507 81.2523 86.4009L79.1961 93.9549C78.895 95.0687 79.1208 96.2441 79.8195 97.2021L80.8159 98.5626C81.5693 99.5913 82.768 100.199 84.043 100.199H86.0836C87.7404 100.199 89.0836 101.542 89.0836 103.199V114.178C89.0836 115.843 87.7275 117.19 86.0625 117.178L63.7289 117.021C62.0803 117.009 60.75 115.67 60.75 114.021V103.199C60.75 101.542 62.0931 100.199 63.75 100.199H65.7876C67.0626 100.199 68.2613 99.5913 69.0147 98.5626L70.0111 97.2021C70.7122 96.2439 70.938 95.0687 70.6345 93.9549L68.5807 86.4009C68.0773 84.5507 68.0254 82.6251 68.4278 80.7536L69.1301 77.4905C69.3439 76.497 69.1716 75.4593 68.6481 74.5883L68.5948 74.4998C67.1645 72.1115 66.4962 69.4095 66.6704 66.698L67.2542 57.612C67.3061 56.8045 66.7375 56.089 65.9391 55.9572C65.241 55.842 64.7054 55.2754 64.6297 54.5719L63.3275 42.4712C63.198 41.2699 63.9179 40.123 65.1272 39.6086L68.7621 38.0581C70.4019 37.3594 71.2724 35.7123 70.8418 34.1217L69.7384 30.0391C69.6349 29.652 69.5831 29.2604 69.5831 28.8709C69.5831 27.8089 69.962 26.7658 70.6724 25.9446C71.7924 24.6467 73.3544 24 74.9166 24C76.4788 24 78.0408 24.6467 79.1606 25.9446C80.1299 27.0678 80.4805 28.6018 80.0922 30.0389L78.9888 34.1215C78.5608 35.7121 79.4289 37.3594 81.0709 38.0579Z" fill="#F7B239"/>
</svg>
