<svg width="33" height="101" viewBox="0 0 33 101" fill="none" xmlns="http://www.w3.org/2000/svg">
<path d="M23.6677 16.123L27.9012 17.9013C29.3097 18.4914 30.1482 19.8068 29.9974 21.1846L28.4781 35.0631C28.3898 35.8698 27.766 36.5196 26.953 36.6517C26.023 36.8029 25.3607 37.6235 25.4211 38.5498L26.1011 48.9703C26.3038 52.0802 25.5284 55.1791 23.8597 57.9182L23.7984 58.0187C23.1882 59.0183 22.9876 60.2093 23.2374 61.3494L24.057 65.0908C24.5257 67.2372 24.4653 69.4457 23.8789 71.5676L21.4841 80.2313C21.1335 81.5087 21.3965 82.8568 22.2102 83.9556L23.3707 85.5159C24.2482 86.6957 25.6442 87.3929 27.1293 87.3929H30C31.6569 87.3929 33 88.736 33 90.3929V97.1626C33 98.8195 31.6569 100.163 30 100.163H3C1.34315 100.163 0 98.8195 0 97.1626V90.3929C0 88.736 1.34315 87.3929 3 87.3929H5.86727C7.35232 87.3929 8.74839 86.6957 9.62585 85.5159L10.7863 83.9556C11.6029 82.8566 11.8659 81.5087 11.5124 80.2313L9.12043 71.5676C8.53405 69.4457 8.47368 67.2372 8.94232 65.0908L9.76028 61.3483C10.0093 60.2088 9.80859 59.0188 9.19884 58.0198L9.13686 57.9182C7.47094 55.1791 6.69257 52.0802 6.89543 48.9703L7.57542 38.5496C7.63586 37.6234 6.97361 36.8029 6.04368 36.6517C5.23062 36.5196 4.60686 35.8697 4.51868 35.0629L3.00197 21.1846C2.85115 19.8068 3.68966 18.4914 5.09813 17.9015L9.33162 16.1232C11.2416 15.3219 12.2554 13.4328 11.7539 11.6086L10.4688 6.92627C10.3482 6.48232 10.2879 6.03312 10.2879 5.58644C10.2879 4.36839 10.7292 3.17204 11.5566 2.23023C12.861 0.741659 14.6803 0 16.4998 0C18.3193 0 20.1386 0.741659 21.4427 2.23023C22.5718 3.51843 22.98 5.27775 22.5278 6.92604L21.2426 11.6084C20.7441 13.4326 21.7552 15.3219 23.6677 16.123Z" fill="#F7B239"/>
</svg>
