<svg width="40" height="40" viewBox="0 0 40 40" fill="none" xmlns="http://www.w3.org/2000/svg">
<rect width="40" height="40" rx="5" fill="#F5C518"/>
<path d="M7 15.1643H9.79558V25.9257H7V15.1643Z" fill="black"/>
<path d="M15.078 20.1213C14.8378 18.4812 14.7042 17.5695 14.6779 17.3876C14.5609 16.5096 14.4494 15.7456 14.3428 15.0938C14.1008 15.0938 12.8932 15.0938 10.7183 15.0938V25.8552H13.1671L13.1756 18.7495L14.2061 25.8552H15.9504L16.9276 18.5914L16.9368 25.8552H19.3776V15.0938H15.7255L15.078 20.1213Z" fill="black"/>
<path d="M23.9928 17.3324C24.0234 17.4697 24.0394 17.7809 24.0394 18.2673C24.0394 18.6846 24.0394 22.0223 24.0394 22.4396C24.0394 23.1558 23.9928 23.5944 23.9003 23.7562C23.8072 23.9179 23.5597 23.9982 23.1584 23.9982C23.1584 23.2918 23.1584 17.6406 23.1584 16.9342C23.4629 16.9342 23.6705 16.9667 23.7808 17.0304C23.8911 17.0947 23.9622 17.1952 23.9928 17.3324ZM25.2555 25.7455C25.5882 25.6726 25.8675 25.5439 26.0942 25.3607C26.3203 25.1769 26.479 24.9227 26.5697 24.5974C26.6609 24.2726 26.7149 23.6275 26.7149 22.6626C26.7149 22.2852 26.7149 19.2617 26.7149 18.8837C26.7149 17.8654 26.675 17.1829 26.6132 16.8362C26.5507 16.4888 26.3957 16.1733 26.1475 15.8902C25.8988 15.6072 25.5361 15.4038 25.0594 15.28C24.5822 15.1562 23.8041 15.0938 22.4507 15.0938C22.3117 15.0938 21.6169 15.0938 20.3652 15.0938V25.8552H23.752C24.5326 25.8306 25.0337 25.7945 25.2555 25.7455Z" fill="black"/>
<path d="M31.2253 24.1372C31.1738 24.2739 30.9483 24.3431 30.778 24.3431C30.6114 24.3431 30.5005 24.2769 30.4441 24.144C30.3878 24.0116 30.3602 23.7096 30.3602 23.2366C30.3602 22.9524 30.3602 20.6769 30.3602 20.3927C30.3602 19.9025 30.3847 19.5968 30.4343 19.4749C30.4833 19.3542 30.5912 19.2929 30.7578 19.2929C30.9281 19.2929 31.1567 19.3622 31.2155 19.5012C31.2737 19.6403 31.3031 19.9374 31.3031 20.3927C31.3031 20.5765 31.3031 21.4954 31.3031 23.1502C31.2853 23.717 31.2596 24.046 31.2253 24.1372ZM27.6669 25.7614H30.1837C30.2885 25.3503 30.3461 25.1218 30.3577 25.0758C30.5857 25.3515 30.8362 25.5586 31.1113 25.6959C31.3852 25.8337 31.795 25.9023 32.1124 25.9023C32.5541 25.9023 32.9352 25.7865 33.2569 25.5543C33.5779 25.3227 33.7825 25.0483 33.8695 24.7327C33.9565 24.4166 34 23.9363 34 23.2905C34 22.9885 34 20.5734 34 20.2713C34 19.6219 33.9853 19.198 33.9565 18.9988C33.9277 18.7997 33.842 18.5969 33.6992 18.3892C33.5565 18.1816 33.3488 18.0204 33.0767 17.9052C32.8047 17.7901 32.4837 17.7325 32.1136 17.7325C31.792 17.7325 31.3803 17.7968 31.1058 17.9236C30.8319 18.0504 30.5832 18.2428 30.3602 18.5008C30.3602 18.2673 30.3602 17.1008 30.3602 15H27.6669V25.7614Z" fill="black"/>
</svg>
